<svg width="118" height="24" viewBox="0 0 118 24" fill="none" xmlns="http://www.w3.org/2000/svg">
<path d="M37.88 19.2101C37.2852 19.2424 36.6969 19.0733 36.21 18.7301C35.7969 18.424 35.5613 17.9339 35.58 17.4201V8.15013C35.5701 8.0706 35.5975 7.99097 35.6542 7.93431C35.7108 7.87764 35.7905 7.85028 35.87 7.86013H37.55C37.74 7.86013 37.83 7.96013 37.83 8.15013V16.7001C37.83 17.0801 38 17.2701 38.35 17.2701C38.4983 17.2762 38.6468 17.2594 38.79 17.2201C38.99 17.2201 39.1 17.2801 39.11 17.4601L39.26 18.7101C39.2746 18.7839 39.2565 18.8603 39.2105 18.9197C39.1645 18.9792 39.095 19.0158 39.02 19.0201C38.652 19.1417 38.2675 19.2058 37.88 19.2101V19.2101Z" fill="#696871"/>
<path fill-rule="evenodd" clip-rule="evenodd" d="M41.33 18.1401C43.0712 19.5788 45.5887 19.5788 47.33 18.1401V18.1301C48.836 16.5595 48.836 14.0807 47.33 12.5101C45.5859 11.0793 43.0741 11.0793 41.33 12.5101C39.7857 14.0691 39.7857 16.5811 41.33 18.1401ZM45.77 16.8201C44.9584 17.5553 43.7216 17.5553 42.91 16.8201C42.1769 15.9772 42.1769 14.723 42.91 13.8801C43.7216 13.1449 44.9584 13.1449 45.77 13.8801C46.5031 14.723 46.5031 15.9772 45.77 16.8201Z" fill="#696871"/>
<path fill-rule="evenodd" clip-rule="evenodd" d="M57.99 11.9801C57.99 11.7901 57.9 11.6901 57.71 11.6901L56.05 11.7001C55.9721 11.6936 55.8954 11.7224 55.8411 11.7786C55.7868 11.8348 55.7607 11.9125 55.77 11.9901V12.1501C55.1598 11.6834 54.408 11.4399 53.64 11.4601C52.5864 11.4225 51.5623 11.812 50.8 12.5401C49.3014 14.0905 49.3014 16.5497 50.8 18.1001C51.5588 18.8349 52.5844 19.2285 53.64 19.1901C54.3864 19.2113 55.1185 18.9826 55.72 18.5401V19.1701C55.7404 19.6335 55.5706 20.085 55.25 20.4201C54.8991 20.7403 54.4343 20.9061 53.96 20.8801C53.5708 20.888 53.1859 20.7986 52.84 20.6201C52.5562 20.4667 52.3389 20.2138 52.23 19.9101C52.1749 19.7751 52.0457 19.6851 51.9 19.6801H50.22C49.95 19.6801 49.95 19.7701 49.95 19.9701C50.0907 20.7895 50.5651 21.5138 51.26 21.9701C52.0651 22.492 53.0111 22.7538 53.97 22.7201C55.0316 22.7669 56.0714 22.4096 56.88 21.7201C57.6177 21.074 58.0254 20.1301 57.99 19.1501V11.9801ZM55.2 16.8201C54.8534 17.2102 54.3515 17.4263 53.83 17.4101C53.3028 17.4254 52.7952 17.2099 52.44 16.8201C52.0813 16.4083 51.8919 15.8759 51.91 15.3301C51.888 14.7789 52.0817 14.2408 52.45 13.8301C52.8044 13.4392 53.3126 13.2235 53.84 13.2401C54.3567 13.2231 54.8546 13.4354 55.2 13.8201C55.8838 14.7032 55.8838 15.937 55.2 16.8201Z" fill="#696871"/>
<path fill-rule="evenodd" clip-rule="evenodd" d="M60.6199 18.1401C62.364 19.5709 64.8758 19.5709 66.6199 18.1401V18.1301C68.126 16.5595 68.126 14.0807 66.6199 12.5101C64.8744 11.0832 62.3654 11.0832 60.6199 12.5101C59.1125 14.0841 59.1125 16.5661 60.6199 18.1401ZM63.6299 17.3701C63.0957 17.3866 62.5771 17.1885 62.1899 16.8201C61.4695 15.9725 61.4695 14.7277 62.1899 13.8801C62.5771 13.5117 63.0957 13.3137 63.6299 13.3301C64.1607 13.3164 64.6751 13.5142 65.0599 13.8801C65.7802 14.7277 65.7802 15.9725 65.0599 16.8201C64.6751 17.186 64.1607 17.3839 63.6299 17.3701Z" fill="#696871"/>
<path fill-rule="evenodd" clip-rule="evenodd" d="M69.45 9.99008C69.9967 10.4686 70.8132 10.4686 71.36 9.99008C71.6022 9.76149 71.7395 9.44315 71.7395 9.11008C71.7395 8.77702 71.6022 8.45868 71.36 8.23008C70.8085 7.76429 70.0014 7.76429 69.45 8.23008C69.2077 8.45868 69.0704 8.77702 69.0704 9.11008C69.0704 9.44315 69.2077 9.76149 69.45 9.99008ZM69.9 18.7301C70.3882 19.0704 70.9755 19.2392 71.57 19.2101C71.9608 19.2064 72.3487 19.1423 72.72 19.0201C72.795 19.0157 72.8645 18.9791 72.9105 18.9197C72.9565 18.8603 72.9745 18.7838 72.96 18.7101L72.81 17.4601C72.8 17.2801 72.69 17.2201 72.49 17.2201C72.3432 17.2587 72.1916 17.2755 72.04 17.2701C71.7 17.2701 71.53 17.0801 71.53 16.7001V11.9801C71.53 11.7901 71.44 11.6901 71.25 11.6901H69.57C69.4904 11.6802 69.4108 11.7076 69.3541 11.7643C69.2975 11.8209 69.2701 11.9006 69.28 11.9801V17.4201C69.2623 17.9314 69.4934 18.4195 69.9 18.7301Z" fill="#696871"/>
<path fill-rule="evenodd" clip-rule="evenodd" d="M81.9999 12.5301C81.232 11.7979 80.2001 11.4082 79.1399 11.4501C78.2141 11.4299 77.3209 11.7916 76.6699 12.4501C76.3266 11.7792 75.6106 11.3837 74.8599 11.4501C74.4919 11.4434 74.1258 11.5044 73.7799 11.6301C73.635 11.6722 73.5392 11.8097 73.5499 11.9601V13.1401C73.5499 13.3001 73.6599 13.3801 73.8799 13.3801H74.2099C74.3725 13.3562 74.5369 13.4107 74.6531 13.5269C74.7693 13.6431 74.8238 13.8075 74.7999 13.9701V22.1701C74.7853 22.2479 74.8101 22.3279 74.8661 22.3839C74.9221 22.4399 75.0021 22.4647 75.0799 22.4501H76.7599C76.9499 22.4501 77.0499 22.3601 77.0499 22.1701V18.5601C77.6572 18.9985 78.391 19.2268 79.1399 19.2101C80.2021 19.2528 81.2355 18.859 81.9999 18.1201C83.467 16.5456 83.467 14.1047 81.9999 12.5301ZM78.9599 17.4096C78.4387 17.4096 77.9402 17.1967 77.5799 16.8201C77.2186 16.394 77.0296 15.8484 77.0499 15.2901C77.0266 14.7314 77.216 14.1847 77.5799 13.7601C77.9402 13.3836 78.4387 13.1706 78.9599 13.1706C79.481 13.1706 79.9796 13.3836 80.3399 13.7601C80.7183 14.1773 80.9161 14.7274 80.8899 15.2901C80.9128 15.8523 80.7155 16.4012 80.3399 16.8201C79.9796 17.1967 79.481 17.4096 78.9599 17.4096Z" fill="#696871"/>
<path d="M87.82 19.2101C86.9223 19.247 86.0321 19.0322 85.25 18.5901C84.6142 18.2072 84.1873 17.5558 84.09 16.8201C84.09 16.6201 84.16 16.5201 84.38 16.5201H85.85C85.9925 16.5256 86.12 16.6106 86.18 16.7401C86.39 17.2801 86.94 17.5501 87.82 17.5501C88.1269 17.5641 88.4326 17.5023 88.71 17.3701C88.905 17.282 89.0357 17.0936 89.05 16.8801C89.05 16.6201 88.89 16.4401 88.57 16.3201C88.1904 16.1937 87.798 16.1099 87.4 16.0701C86.9284 16.0167 86.4608 15.9332 86 15.8201C85.5518 15.7186 85.1443 15.4853 84.83 15.1501C84.4558 14.6896 84.2896 14.0944 84.3712 13.5066C84.4527 12.9189 84.7746 12.3914 85.26 12.0501C85.9807 11.5909 86.8264 11.3673 87.68 11.4101C88.5063 11.3821 89.324 11.5865 90.04 12.0001C90.6243 12.3311 91.0284 12.9078 91.14 13.5701C91.14 13.7701 91.05 13.8701 90.87 13.8701H89.39C89.2624 13.8776 89.1433 13.8062 89.09 13.6901C88.9911 13.4532 88.8049 13.2635 88.57 13.1601C88.305 13.0214 88.009 12.9526 87.71 12.9601C87.4168 12.9441 87.1244 13.0026 86.86 13.1301C86.6693 13.2036 86.5426 13.3858 86.54 13.5901C86.5531 13.8708 86.7478 14.1101 87.02 14.1801C87.404 14.3248 87.8032 14.4255 88.21 14.4801C88.6776 14.5416 89.1417 14.6284 89.6 14.7401C90.0481 14.8415 90.4557 15.0749 90.77 15.4101C91.1096 15.7831 91.286 16.2763 91.26 16.7801C91.2775 17.4833 90.9244 18.144 90.33 18.5201C89.5828 18.9997 88.7073 19.2404 87.82 19.2101V19.2101Z" fill="#696871"/>
<path d="M101.83 18.7101C101.841 18.7818 101.823 18.8551 101.78 18.9134C101.737 18.9718 101.672 19.0102 101.6 19.0201C101.235 19.1393 100.854 19.2033 100.47 19.2101C99.6969 19.2901 98.9384 18.9601 98.4699 18.3401C97.7635 18.9474 96.8502 19.259 95.9199 19.2101C95.0465 19.2503 94.1967 18.9198 93.5799 18.3001C92.9679 17.6512 92.6465 16.781 92.6899 15.8901V11.9801C92.6899 11.7901 92.7799 11.6901 92.9699 11.6901H94.6499C94.8399 11.6901 94.9299 11.7901 94.9299 11.9801V15.5901C94.9116 16.0398 95.0654 16.4797 95.3599 16.8201C95.6573 17.1356 96.0767 17.307 96.5099 17.2901C96.9526 17.3094 97.3847 17.151 97.7099 16.8501C98.018 16.5326 98.1809 16.1019 98.1599 15.6601V11.9801C98.1599 11.7901 98.2499 11.6901 98.4399 11.6901H100.14C100.33 11.6901 100.42 11.7901 100.42 11.9801V16.6901C100.42 17.0801 100.59 17.2701 100.92 17.2701C101.075 17.2761 101.23 17.2592 101.38 17.2201C101.457 17.1986 101.539 17.2133 101.603 17.2601C101.667 17.3069 101.707 17.3806 101.71 17.4601L101.83 18.7101Z" fill="#696871"/>
<path d="M117.72 18.7101C117.738 18.7826 117.723 18.8594 117.678 18.9194C117.634 18.9794 117.565 19.0163 117.49 19.0201C117.118 19.141 116.731 19.205 116.34 19.2101C115.745 19.2408 115.158 19.0718 114.67 18.7301C114.242 18.4328 113.99 17.9413 114 17.4201V15.0701C114.021 14.6217 113.871 14.182 113.58 13.8401C113.296 13.5236 112.885 13.3511 112.46 13.3701C112.077 13.3556 111.708 13.5178 111.46 13.8101C111.196 14.1452 111.061 14.5639 111.08 14.9901V18.6801C111.08 18.8701 110.99 18.9701 110.8 18.9701H109.11C109.03 18.9799 108.951 18.9526 108.894 18.8959C108.837 18.8392 108.81 18.7596 108.82 18.6801V15.0701C108.842 14.6266 108.703 14.19 108.43 13.8401C108.183 13.5425 107.817 13.3702 107.43 13.3701C107.017 13.3534 106.617 13.5135 106.33 13.8101C106.044 14.1345 105.897 14.5582 105.92 14.9901V18.6801C105.93 18.7596 105.902 18.8392 105.846 18.8959C105.789 18.9526 105.709 18.9799 105.63 18.9701H104C103.81 18.9701 103.72 18.8701 103.72 18.6801V13.9701C103.744 13.8074 103.689 13.6431 103.573 13.5269C103.457 13.4106 103.293 13.3562 103.13 13.3801H102.8C102.58 13.3801 102.47 13.3001 102.47 13.1401V11.9601C102.459 11.8096 102.555 11.6721 102.7 11.6301C103.046 11.5043 103.412 11.4433 103.78 11.4501C104.501 11.3887 105.193 11.7464 105.56 12.3701C106.242 11.7237 107.162 11.3904 108.1 11.4501C109.014 11.4055 109.894 11.7992 110.47 12.5101C111.14 11.7817 112.102 11.3926 113.09 11.4501C113.972 11.4088 114.832 11.7388 115.46 12.3601C116.074 13.0077 116.396 13.8788 116.35 14.7701V16.7001C116.35 17.0801 116.52 17.2701 116.84 17.2701C116.995 17.2773 117.15 17.2604 117.3 17.2201C117.507 17.2201 117.617 17.3001 117.63 17.4601L117.72 18.7101Z" fill="#696871"/>
<path fill-rule="evenodd" clip-rule="evenodd" d="M0.459927 10.3901C1.97801 4.28843 7.45725 0.00537109 13.7449 0.00537109C20.0326 0.00537109 25.5118 4.28843 27.0299 10.3901H25.8299C23.8056 10.3603 21.8228 10.9653 20.1599 12.1201C20.064 12.1896 19.9638 12.253 19.8599 12.3101H19.7199C19.6161 12.253 19.5159 12.1896 19.4199 12.1201C15.9884 9.81261 11.5014 9.81261 8.06993 12.1201C7.97396 12.1896 7.87377 12.253 7.76993 12.3101H7.62993C7.52609 12.253 7.42589 12.1896 7.32993 12.1201C5.66706 10.9653 3.68424 10.3603 1.65993 10.3901H0.459927ZM23.6699 16.6601C24.2859 16.1803 25.0494 15.9294 25.8299 15.9501H27.4399V12.7401H25.8299C24.4552 12.7235 23.1118 13.1514 21.9999 13.9601C20.7156 14.907 18.9643 14.907 17.6799 13.9601C15.3449 12.3347 12.2449 12.3347 9.90993 13.9601C8.62558 14.907 6.87427 14.907 5.58993 13.9601C4.46433 13.141 3.10172 12.7126 1.70993 12.7401H0.0499268V15.9501H1.65993C2.44044 15.9294 3.20392 16.1803 3.81993 16.6601C6.15087 18.2867 9.24898 18.2867 11.5799 16.6601C12.1967 16.1818 12.9597 15.931 13.7399 15.9501C14.5207 15.9277 15.2847 16.1789 15.8999 16.6601C18.2349 18.2855 21.3349 18.2855 23.6699 16.6601ZM25.8299 21.6901C25.0494 21.6694 24.2859 21.9203 23.6699 22.4001C21.3349 24.0255 18.2349 24.0255 15.8999 22.4001C15.2847 21.9189 14.5207 21.6677 13.7399 21.6901C12.9597 21.671 12.1967 21.9218 11.5799 22.4001C9.24898 24.0267 6.15087 24.0267 3.81993 22.4001C3.20392 21.9203 2.44044 21.6694 1.65993 21.6901H0.0499268V18.4801H1.70993C3.10172 18.4526 4.46433 18.881 5.58993 19.7001C6.87427 20.647 8.62558 20.647 9.90993 19.7001C12.2449 18.0747 15.3449 18.0747 17.6799 19.7001C18.9643 20.647 20.7156 20.647 21.9999 19.7001C23.1118 18.8914 24.4552 18.4635 25.8299 18.4801H27.4399V21.6901H25.8299Z" fill="#696871"/>
</svg>
