<svg width="101" height="48" viewBox="0 0 101 48" fill="none" xmlns="http://www.w3.org/2000/svg">
<path d="M0.790039 28.61H3.79004V43.32H0.790039V28.61Z" fill="#696871"/>
<path fill-rule="evenodd" clip-rule="evenodd" d="M8.81956 33.3393C6.82446 34.169 5.52598 36.1192 5.53003 38.28C5.51649 39.6994 6.07507 41.0645 7.07976 42.0673C8.08445 43.0701 9.4506 43.6262 10.87 43.61C13.0308 43.61 14.9786 42.3078 15.8045 40.3112C16.6304 38.3145 16.1717 36.0169 14.6424 34.4905C13.1131 32.964 10.8147 32.5096 8.81956 33.3393ZM10.8311 36.0203C12.1043 35.9985 13.1571 37.007 13.19 38.28C13.2238 38.9104 12.9923 39.5263 12.5516 39.9784C12.1109 40.4305 11.5011 40.6776 10.87 40.66C9.59663 40.6595 8.56158 39.6328 8.55088 38.3594C8.54019 37.0861 9.55785 36.0421 10.8311 36.0203Z" fill="#696871"/>
<path fill-rule="evenodd" clip-rule="evenodd" d="M28.27 42.8201V33.24L25.32 33.27V34.27C24.6016 33.3939 23.5118 32.9083 22.38 32.96C19.5523 32.96 17.26 35.2524 17.26 38.08C17.26 40.9077 19.5523 43.2 22.38 43.2C23.5127 43.2566 24.6046 42.7701 25.32 41.89V42.8201C25.3781 43.4381 25.146 44.0481 24.6916 44.471C24.2373 44.894 23.6123 45.0821 23 44.9801C22.0606 45.0578 21.1689 44.5544 20.75 43.71L18.17 45.2C19.1785 46.8415 21.0188 47.7829 22.94 47.64C25.62 47.64 28.27 46.2101 28.27 42.8201ZM23.8851 35.7558C24.7929 36.1651 25.3608 37.0851 25.32 38.08C25.3386 38.7239 25.0839 39.3455 24.6191 39.7913C24.1542 40.2371 23.5225 40.4655 22.88 40.4201C21.8842 40.4192 20.9888 39.8133 20.6178 38.8892C20.2467 37.9651 20.4745 36.9083 21.1932 36.219C21.9119 35.5297 22.9774 35.3464 23.8851 35.7558Z" fill="#696871"/>
<path fill-rule="evenodd" clip-rule="evenodd" d="M33.2895 33.3393C31.2944 34.169 29.9959 36.1192 30 38.28C29.9865 39.6994 30.545 41.0645 31.5497 42.0673C32.5544 43.0701 33.9206 43.6262 35.34 43.61C37.5007 43.61 39.4485 42.3078 40.2745 40.3112C41.1004 38.3145 40.6417 36.0169 39.1124 34.4905C37.5831 32.964 35.2846 32.5096 33.2895 33.3393ZM35.301 36.0203C36.5742 35.9985 37.6271 37.007 37.66 38.28H37.64C37.6734 38.9069 37.4446 39.5194 37.0083 39.9709C36.5721 40.4223 35.9677 40.672 35.34 40.66C34.0666 40.6595 33.0315 39.6328 33.0209 38.3594C33.0102 37.0861 34.0278 36.0421 35.301 36.0203Z" fill="#696871"/>
<path fill-rule="evenodd" clip-rule="evenodd" d="M43.8901 28.72C42.8849 28.72 42.0701 29.5348 42.0701 30.54C42.0755 31.5429 42.8872 32.3545 43.8901 32.36C44.8952 32.36 45.7101 31.5451 45.7101 30.54C45.7101 29.5348 44.8952 28.72 43.8901 28.72ZM45.3801 33.24H42.3801V43.32H45.3801V33.24Z" fill="#696871"/>
<path fill-rule="evenodd" clip-rule="evenodd" d="M57.1641 41.9458C58.067 40.9452 58.5335 39.6258 58.46 38.28C58.5307 36.9359 58.063 35.619 57.1604 34.6206C56.2577 33.6222 54.9944 33.0246 53.65 32.96C52.5172 32.9056 51.4186 33.356 50.65 34.19V33.24H47.65V47.38H50.65V42.38C51.4186 43.2139 52.5172 43.6644 53.65 43.61C54.9963 43.5454 56.2611 42.9464 57.1641 41.9458ZM53.0405 35.9408C54.3502 35.9298 55.4269 36.9707 55.46 38.28H55.44C55.4876 38.9423 55.2465 39.5929 54.7789 40.0643C54.3113 40.5358 53.6627 40.7821 53 40.74C51.6908 40.7068 50.6498 39.6301 50.6609 38.3205C50.6719 37.0108 51.7309 35.9519 53.0405 35.9408Z" fill="#696871"/>
<path d="M67.8 40.2999C67.8 42.6199 65.8 43.6099 63.6 43.6099C61.802 43.7691 60.0879 42.819 59.27 41.2099L61.89 39.7199C62.1092 40.4694 62.8211 40.9649 63.6 40.9099C64.33 40.9099 64.69 40.6799 64.69 40.2799C64.69 39.1699 59.69 39.7599 59.69 36.2799C59.69 34.0799 61.55 32.9699 63.69 32.9699C65.2981 32.9211 66.8064 33.7479 67.63 35.1299L65 36.5099C64.7626 35.9704 64.2295 35.6215 63.64 35.6199C63.12 35.6199 62.8 35.8199 62.8 36.1899C62.84 37.3399 67.8 36.5699 67.8 40.2999Z" fill="#696871"/>
<path d="M78.8401 33.24V43.32H75.8401V42.38C75.1322 43.2272 74.0616 43.6844 72.9601 43.61C70.9601 43.61 69.1901 42.16 69.1901 39.43V33.24H72.1901V38.99C72.1366 39.4862 72.3093 39.9802 72.6603 40.335C73.0113 40.6899 73.5033 40.868 74.0001 40.82C75.1001 40.82 75.8701 40.18 75.8701 38.75V33.24H78.8401Z" fill="#696871"/>
<path d="M96.18 37.14V43.32H93.18V37.4C93.18 36.4 92.69 35.74 91.73 35.74C90.77 35.74 90.15 36.45 90.15 37.64V43.32H87.15V37.4C87.15 36.4 86.67 35.74 85.7 35.74C84.73 35.74 84.13 36.45 84.13 37.64V43.32H81.13V33.24H84.13V34.17C84.767 33.3355 85.7832 32.8801 86.83 32.96C87.8825 32.909 88.8847 33.4138 89.47 34.29C90.1503 33.3746 91.2528 32.8724 92.39 32.96C94.67 32.96 96.18 34.62 96.18 37.14Z" fill="#696871"/>
<path d="M98.74 33.18C99.9771 33.18 100.98 32.1771 100.98 30.94C100.98 29.7028 99.9771 28.7 98.74 28.7C97.5029 28.7 96.5 29.7028 96.5 30.94C96.5 32.1771 97.5029 33.18 98.74 33.18Z" fill="#696871"/>
<path d="M34.74 20.98C40.5335 20.98 45.23 16.2835 45.23 10.49C45.23 4.69653 40.5335 0 34.74 0C28.9465 0 24.25 4.69653 24.25 10.49C24.25 16.2835 28.9465 20.98 34.74 20.98Z" fill="#696871"/>
<path d="M58.1901 20.98C63.9835 20.98 68.6801 16.2835 68.6801 10.49C68.6801 4.69653 63.9835 0 58.1901 0C52.3966 0 47.7001 4.69653 47.7001 10.49C47.7001 16.2835 52.3966 20.98 58.1901 20.98Z" fill="#696871"/>
<rect x="0.810059" width="20.97" height="20.97" fill="#696871"/>
</svg>
