<svg width="128" height="30" viewBox="0 0 128 30" fill="none" xmlns="http://www.w3.org/2000/svg">
<path fill-rule="evenodd" clip-rule="evenodd" d="M75.7124 8.33584C75.1024 8.61188 74.7214 9.23103 74.75 9.89998L74.77 9.90998C74.7752 10.3326 74.9495 10.7355 75.2539 11.0286C75.5584 11.3217 75.9675 11.4807 76.39 11.47C77.0596 11.4694 77.6615 11.0618 77.9107 10.4403C78.1599 9.81887 78.0063 9.10833 77.5226 8.64532C77.039 8.1823 76.3224 8.0598 75.7124 8.33584ZM39.72 9.07998H36.51V22.08H39.72V9.07998ZM46 12.04C43 12.04 41 13.97 41 17.19C41 20.48 42.93 22.36 46 22.36C49.07 22.36 51 20.41 51 17.19C51 13.97 49 12.04 46 12.04ZM47.82 17.19C47.82 15.42 47.13 14.38 46.03 14.38C44.93 14.38 44.25 15.38 44.25 17.19C44.25 19 44.93 19.99 46.03 19.99C47.13 19.99 47.84 19 47.84 17.2L47.82 17.19ZM55.38 22.75H52.28L52.3 22.76C52.48 24.55 54.26 25.82 57.04 25.83C60.1 25.83 62.18 24.36 62.18 22.01V12.27H59V13.8827C58.4571 12.7958 57.3169 12.1243 56.09 12.19C53.58 12.19 52.09 14.11 52.09 17.19C52.09 20.27 53.65 22.06 56 22.06C57.2579 22.1522 58.4432 21.4657 58.99 20.3309V22.11C58.99 23.09 58.35 23.75 57.12 23.75C56.3814 23.8447 55.67 23.4359 55.38 22.75ZM59 17.19C59 15.62 58.28 14.63 57.14 14.63C56 14.63 55.3 15.63 55.3 17.19C55.3 18.75 55.99 19.67 57.14 19.67C58.29 19.67 59 18.82 59 17.19ZM68.45 12.04C65.45 12.04 63.45 13.97 63.45 17.19H63.47C63.47 20.48 65.39 22.36 68.45 22.36C71.51 22.36 73.45 20.41 73.45 17.19C73.45 13.97 71.45 12.04 68.45 12.04ZM70.27 17.19C70.27 15.42 69.57 14.38 68.48 14.38C67.39 14.38 66.7 15.38 66.7 17.19C66.7 19 67.38 19.99 68.48 19.99C69.58 19.99 70.29 19 70.29 17.2L70.27 17.19ZM74.75 12.26H78V22.12H74.8L74.75 12.26ZM85.8 22.26C88.25 22.26 89.69 20.4 89.69 17.19L89.75 17.2C89.75 13.98 88.3 12.13 85.78 12.15C84.4796 12.0881 83.2799 12.8479 82.78 14.05H82.72V12.29H79.53V25.29H82.74V20.43H82.8C83.3175 21.6086 84.5153 22.3392 85.8 22.26ZM86.42 17.19C86.42 15.63 85.69 14.62 84.56 14.62C83.43 14.62 82.72 15.62 82.71 17.19C82.7 18.76 83.43 19.75 84.56 19.75C85.69 19.75 86.48 18.82 86.48 17.2L86.42 17.19ZM99.55 15.34C99.53 13.3 97.86 12.03 95.17 12.03L95.23 12.04C92.52 12.04 90.84 13.29 90.78 15.25C90.78 16.76 91.79 17.77 93.72 18.18L95.58 18.57C96.35 18.73 96.65 18.82 96.65 19.35C96.65 19.88 96.21 20.18 95.27 20.18C94.33 20.18 93.75 19.75 93.66 19.02H90.55C90.68 21.03 92.47 22.35 95.22 22.35C97.97 22.35 99.82 20.99 99.82 18.99C99.82 17.5 99.02 16.7 97.02 16.28L94.96 15.86C94.22 15.71 93.85 15.55 93.85 15.04C93.85 14.53 94.27 14.19 95.15 14.19C96.03 14.19 96.62 14.63 96.62 15.34H99.55ZM110.57 22.11H107.46V20.26H107.4C107.041 21.5311 105.849 22.383 104.53 22.31C103.552 22.3418 102.608 21.9548 101.934 21.2461C101.259 20.5375 100.92 19.5748 101 18.6V12.27H104.21V17.91C104.21 19.07 104.82 19.7 105.82 19.7C106.295 19.6964 106.745 19.4873 107.053 19.1268C107.362 18.7662 107.499 18.2896 107.43 17.82V12.27H110.63L110.57 22.11ZM115.24 12.26H112.12L112.14 22.12H115.35V16.3C115.298 15.8906 115.425 15.4788 115.699 15.1703C115.973 14.8618 116.367 14.6867 116.78 14.69C117.66 14.69 118.15 15.22 118.15 16.22V22.12H121.21V16.28C121.155 15.8753 121.279 15.4665 121.55 15.1609C121.821 14.8553 122.212 14.6833 122.62 14.69C123.53 14.69 124 15.25 124 16.25V22.12H127.23V15.43C127.296 14.544 126.981 13.6718 126.365 13.0321C125.748 12.3925 124.888 12.0462 124 12.08C122.642 12.0164 121.411 12.874 121 14.17H120.86C120.623 12.8708 119.436 11.9656 118.12 12.08C116.819 12.0535 115.665 12.9082 115.31 14.16H115.24V12.26Z" fill="#696871"/>
<path fill-rule="evenodd" clip-rule="evenodd" d="M30.16 9.92994C30.1602 5.85634 27.6602 2.20021 23.8641 0.722463C20.068 -0.755281 15.754 0.248336 13 3.24994H0.52002V29.5899H26.87V17.2799C28.9617 15.4091 30.1581 12.7362 30.16 9.92994ZM25.09 9.92994C25.0941 11.8804 23.9223 13.641 22.1215 14.3902C20.3207 15.1394 18.2459 14.7295 16.8653 13.3517C15.4847 11.974 15.0705 9.90006 15.816 8.09772C16.5614 6.29538 18.3196 5.11994 20.27 5.11994C22.9281 5.11993 25.0845 7.27183 25.09 9.92994ZM5.59002 24.5199H21.8V19.6899C21.2943 19.7738 20.7827 19.8172 20.27 19.8199C14.8102 19.8144 10.3855 15.3898 10.38 9.92994C10.3844 9.39 10.4346 8.8514 10.53 8.31994H5.59002V24.5199Z" fill="#696871"/>
</svg>
