<svg width="124" height="30" viewBox="0 0 124 30" fill="none" xmlns="http://www.w3.org/2000/svg">
<path d="M26.7299 10.53C27.0899 10.53 27.2099 10.66 27.2099 11.01V18.93H31.2799C31.6299 18.93 31.7599 19.06 31.7599 19.41V20.11C31.7599 20.46 31.6299 20.59 31.2799 20.59H25.9199C25.5699 20.59 25.4299 20.46 25.4299 20.11V11.01C25.4299 10.66 25.5699 10.53 25.9199 10.53H26.7299Z" fill="#696871"/>
<path fill-rule="evenodd" clip-rule="evenodd" d="M39.3099 10.3201C36.7699 10.3201 35.3099 11.7101 35.3099 14.0201V17.1001C35.3099 19.4101 36.7799 20.8001 39.3099 20.8001C41.8399 20.8001 43.3099 19.4101 43.3099 17.1001V14.0201C43.3099 11.7101 41.8499 10.3201 39.3099 10.3201ZM39.3599 12.0201C40.8199 12.0201 41.6299 12.7201 41.6299 14.0201V17.1201C41.6299 18.4001 40.8199 19.1201 39.3599 19.1201C37.8999 19.1201 37.0999 18.4301 37.0999 17.1201V14.0201C37.0999 12.7301 37.8999 12.0201 39.3599 12.0201Z" fill="#696871"/>
<path d="M55.22 15.08C55.61 15.08 55.7 15.21 55.7 15.56V17.46C55.7215 18.3665 55.3318 19.234 54.64 19.82C53.7917 20.4955 52.7221 20.8307 51.64 20.76C49.05 20.76 47.64 19.37 47.64 17.06V13.96C47.64 11.68 49.1 10.28 51.64 10.28C53.64 10.28 54.94 11.07 55.49 12.65C55.5524 12.7704 55.5544 12.9131 55.4953 13.0352C55.4363 13.1572 55.3231 13.2442 55.19 13.27L54.41 13.54C54.07 13.66 53.93 13.59 53.81 13.24C53.4692 12.3613 52.5756 11.8259 51.64 11.94C50.17 11.94 49.37 12.65 49.37 13.94V17.12C49.37 18.43 50.18 19.12 51.64 19.12C53.1 19.12 54 18.45 54 17.47V16.73H51.83C51.47 16.73 51.34 16.59 51.34 16.24V15.56C51.34 15.21 51.47 15.08 51.83 15.08H55.22Z" fill="#696871"/>
<path fill-rule="evenodd" clip-rule="evenodd" d="M63.83 10.3201C61.29 10.3201 59.83 11.7101 59.83 14.0201V17.1001C59.83 19.4101 61.3 20.8001 63.83 20.8001C66.36 20.8001 67.83 19.4101 67.83 17.1001V14.0201C67.83 11.7101 66.37 10.3201 63.83 10.3201ZM63.88 12.0201C65.33 12.0201 66.14 12.7201 66.14 14.0201V17.1201C66.14 18.4001 65.34 19.1201 63.88 19.1201C62.42 19.1201 61.61 18.4301 61.61 17.1201V14.0201C61.61 12.7301 62.43 12.0201 63.88 12.0201Z" fill="#696871"/>
<path d="M72.5399 10.82C72.5399 10.6 72.6099 10.53 72.8299 10.53H73.2899C73.5099 10.53 73.5599 10.6 73.5599 10.82V20.3C73.5599 20.52 73.5599 20.59 73.2899 20.59H72.8299C72.6099 20.59 72.5399 20.52 72.5399 20.3V10.82Z" fill="#696871"/>
<path fill-rule="evenodd" clip-rule="evenodd" d="M85.8099 13.67C85.8099 11.9359 84.4041 10.53 82.6699 10.53H78.9399C78.7299 10.53 78.6499 10.6 78.6499 10.82V20.3C78.6499 20.52 78.7299 20.59 78.9399 20.59H79.4099C79.6199 20.59 79.6699 20.52 79.6699 20.3V16.81H82.6699C84.4041 16.81 85.8099 15.4042 85.8099 13.67ZM84.4678 14.73C84.0784 15.4045 83.3587 15.82 82.5799 15.82H79.5799V11.46H82.5799C83.3587 11.46 84.0784 11.8755 84.4678 12.55C84.8573 13.2245 84.8573 14.0555 84.4678 14.73Z" fill="#696871"/>
<path d="M93.62 10.33C95.2054 10.155 96.7178 11.0413 97.34 12.51C97.42 12.67 97.34 12.8 97.18 12.88L96.74 13.08C96.56 13.15 96.49 13.14 96.38 12.95C95.9151 11.8608 94.7989 11.1975 93.62 11.31C91.93 11.31 91.01 11.98 91.01 13.18C90.9897 13.9383 91.5317 14.5955 92.28 14.72C92.8178 14.8954 93.3755 15.0029 93.94 15.04C94.6233 15.0765 95.2974 15.2146 95.94 15.45C96.9554 15.7713 97.6064 16.7604 97.5 17.82C97.5 19.69 96.14 20.82 93.64 20.82C91.9503 21.0133 90.3549 20.0011 89.81 18.39C89.7743 18.3178 89.7726 18.2335 89.8055 18.16C89.8384 18.0865 89.9024 18.0315 89.98 18.01L90.42 17.85C90.4901 17.8214 90.569 17.8235 90.6374 17.8558C90.7059 17.8881 90.7576 17.9477 90.78 18.02C91.239 19.1793 92.3962 19.9076 93.64 19.82C95.53 19.82 96.46 19.16 96.46 17.82C96.4963 17.0926 96.0015 16.4455 95.29 16.29C94.7726 16.1357 94.239 16.0417 93.7 16.01L92.62 15.87C92.282 15.7983 91.9482 15.7081 91.62 15.6C91.2958 15.5021 90.9936 15.3425 90.73 15.13C90.193 14.6437 89.8999 13.9439 89.93 13.22C90 11.47 91.31 10.33 93.62 10.33Z" fill="#696871"/>
<path d="M102.89 17.17C102.978 18.638 104.194 19.7834 105.665 19.7834C107.136 19.7834 108.352 18.638 108.44 17.17V10.82C108.44 10.6 108.51 10.53 108.73 10.53H109.19C109.41 10.53 109.48 10.6 109.48 10.82V17.16C109.48 19.43 108.14 20.8 105.67 20.8C103.2 20.8 101.86 19.43 101.86 17.16V10.82C101.86 10.6 101.93 10.53 102.14 10.53H102.61C102.82 10.53 102.89 10.6 102.89 10.82V17.17Z" fill="#696871"/>
<path d="M123.28 10.5301C123.5 10.5301 123.57 10.6001 123.57 10.8201V20.3001C123.57 20.5201 123.5 20.5901 123.28 20.5901H122.86C122.65 20.5901 122.58 20.5201 122.58 20.3001V14.5301C122.58 13.6905 122.637 12.8519 122.75 12.0201H122.69C122.378 12.7808 122.013 13.5192 121.6 14.2301L119.45 18.0201C119.396 18.1547 119.265 18.2421 119.12 18.2401H118.84C118.693 18.2408 118.56 18.1544 118.5 18.0201L116.32 14.1901C115.933 13.4893 115.599 12.7606 115.32 12.0101H115.26C115.362 12.8496 115.416 13.6943 115.42 14.5401V20.3001C115.42 20.5201 115.35 20.5901 115.13 20.5901H114.74C114.52 20.5901 114.45 20.5201 114.45 20.3001V10.8201C114.45 10.6001 114.52 10.5301 114.74 10.5301H115.1C115.269 10.5143 115.429 10.6065 115.5 10.7601L119 16.9801L122.48 10.8201C122.59 10.6101 122.65 10.5801 122.87 10.5801L123.28 10.5301Z" fill="#696871"/>
<path fill-rule="evenodd" clip-rule="evenodd" d="M2.30996 1.51008V21.8201C2.30996 22.0694 2.21093 22.3085 2.03464 22.4848C1.85836 22.661 1.61926 22.7601 1.36996 22.7601H1.14996C0.630813 22.7601 0.209961 22.3392 0.209961 21.8201V1.51008C0.215443 0.99484 0.634694 0.580049 1.14996 0.580078H1.36996C1.88523 0.580049 2.30448 0.99484 2.30996 1.51008ZM13.8403 14.3847C14.0388 14.1956 14.3062 14.0964 14.58 14.1101L14.53 14.1301C14.821 14.1004 15.1104 14.1996 15.322 14.4016C15.5335 14.6035 15.6461 14.888 15.63 15.1801V20.6801C15.63 21.26 15.1599 21.7301 14.58 21.7301C14.0001 21.7301 13.53 21.26 13.53 20.6801V15.1101C13.5296 14.836 13.6418 14.5737 13.8403 14.3847ZM16.84 17.2801C16.84 16.7278 17.2877 16.2801 17.84 16.2801C18.1293 16.2535 18.4159 16.3541 18.6252 16.5557C18.8345 16.7573 18.9457 17.0399 18.93 17.3301V18.5401C18.93 19.1172 18.4621 19.5851 17.885 19.5851C17.3078 19.5851 16.84 19.1172 16.84 18.5401V17.2801ZM8.93996 25.6001V18.3701C8.62725 18.6078 8.2426 18.7313 7.84996 18.7201C7.48979 18.7112 7.14092 18.5925 6.84996 18.3801V25.6001C6.84996 26.1772 7.31782 26.6451 7.89496 26.6451C8.4721 26.6451 8.93996 26.1772 8.93996 25.6001ZM4.57996 21.1101C4.22013 21.0993 3.87179 20.9809 3.57996 20.7701V28.0201C3.57996 28.6 4.05006 29.0701 4.62996 29.0701C5.20986 29.0701 5.67996 28.6 5.67996 28.0201V20.8201C5.35341 21.0312 4.96812 21.1327 4.57996 21.1101ZM11.26 16.2501C10.8833 16.2475 10.5166 16.1288 10.21 15.9101V23.1801C10.21 23.76 10.6801 24.2301 11.26 24.2301C11.8399 24.2301 12.31 23.76 12.31 23.1801V15.9201C11.9927 16.1564 11.6054 16.2796 11.21 16.2701L11.26 16.2501ZM4.68996 20.3401H4.46996C3.95081 20.3401 3.52996 19.9192 3.52996 19.4001V3.93008C3.53544 3.41484 3.95469 3.00005 4.46996 3.00008H4.68996C5.20523 3.00005 5.62448 3.41484 5.62996 3.93008V19.4201C5.62996 19.9392 5.20911 20.3601 4.68996 20.3601V20.3401ZM7.76996 17.9601H7.99996C8.51359 17.9601 8.92996 17.5437 8.92996 17.0301V6.33008C8.92999 5.81481 8.5152 5.39556 7.99996 5.39008H7.76996C7.52157 5.39006 7.28349 5.48942 7.10879 5.66599C6.93409 5.84257 6.83729 6.0817 6.83996 6.33008V17.0301C6.83996 17.5437 7.25634 17.9601 7.76996 17.9601ZM11.31 15.5101H11.1C10.5847 15.5101 10.1654 15.0953 10.16 14.5801V8.82008C10.1434 8.56055 10.235 8.30575 10.4131 8.11626C10.5912 7.92678 10.8399 7.81955 11.1 7.82008H11.32C11.8391 7.82008 12.26 8.24093 12.26 8.76008V14.5601C12.2626 14.8111 12.1648 15.0528 11.9882 15.2312C11.8116 15.4097 11.571 15.5101 11.32 15.5101H11.31ZM14.41 13.3601H14.63H14.64C15.1552 13.3546 15.57 12.9353 15.57 12.4201V10.9301C15.5645 10.4148 15.1452 10 14.63 10.0001H14.41C13.8947 10 13.4754 10.4148 13.47 10.9301V12.4201C13.47 12.9392 13.8908 13.3601 14.41 13.3601Z" fill="#696871"/>
</svg>
