<svg width="120" height="28" viewBox="0 0 120 28" fill="none" xmlns="http://www.w3.org/2000/svg">
<path fill-rule="evenodd" clip-rule="evenodd" d="M71.3497 7.20143C70.7832 7.45249 70.424 8.02047 70.4401 8.63992V8.65992C70.4364 9.06684 70.6026 9.45685 70.8988 9.73593C71.1949 10.015 71.5941 10.1578 72.0001 10.1299C72.6197 10.1176 73.1706 9.73273 73.3954 9.15529C73.6202 8.57784 73.4745 7.92181 73.0264 7.49382C72.5783 7.06582 71.9162 6.95037 71.3497 7.20143ZM37.8701 7.88992H34.8701V20.0199H37.8701V7.88992ZM43.7401 10.6499C40.9001 10.6499 39.0601 12.4399 39.0601 15.4399C39.0601 18.4899 40.8601 20.2399 43.7401 20.2399C46.6201 20.2399 48.4201 18.4399 48.4201 15.4399C48.4201 12.4399 46.5801 10.6499 43.7401 10.6499ZM45.4101 15.4399C45.4101 13.7899 44.7601 12.8199 43.7401 12.8199C42.7201 12.8199 42.0801 13.8199 42.0801 15.4399C42.0801 17.0599 42.7101 18.0399 43.7401 18.0399C44.7701 18.0399 45.4101 17.1199 45.4101 15.4499V15.4399ZM52.4301 20.6099H49.5501V20.6199C49.7201 22.2799 51.3701 23.4699 54.0201 23.4699C56.8701 23.4699 58.8001 22.1099 58.8001 19.9199V10.8199H55.8001V12.4899C55.3377 11.3847 54.2373 10.683 53.0401 10.7299C50.7401 10.7299 49.3601 12.5399 49.3601 15.4099C49.3601 18.2799 50.8101 19.9499 53.0001 19.9499C54.1599 20.0129 55.2411 19.3634 55.7301 18.3099H55.7901V19.9899C55.7901 20.8899 55.1901 21.5099 54.0501 21.5099C53.3705 21.6013 52.7116 21.2353 52.4301 20.6099ZM55.8001 15.4299C55.8001 13.9699 55.1301 13.0499 54.0701 13.0499C53.0101 13.0499 52.3601 13.9599 52.3601 15.4299C52.3601 16.8999 53.0001 17.7299 54.0701 17.7299C55.1401 17.7299 55.8001 16.9199 55.8001 15.4399V15.4299ZM64.6101 10.6399C61.7701 10.6399 59.9301 12.4299 59.9301 15.4299V15.4399C59.9301 18.4899 61.7201 20.2299 64.6101 20.2299C67.5001 20.2299 69.3001 18.4299 69.3001 15.4299C69.3001 12.4299 67.4501 10.6399 64.6101 10.6399ZM66.2801 15.4299C66.2801 13.7799 65.6301 12.8099 64.6101 12.8099C63.5901 12.8099 63.0001 13.8199 63.0001 15.4499C63.0001 17.0799 63.6301 18.0499 64.6501 18.0499C65.6701 18.0499 66.2801 17.1199 66.2801 15.4499V15.4299ZM70.4401 10.8399H73.4401V20.0199H70.4401V10.8399ZM80.7201 20.1399C83.0001 20.1399 84.3301 18.4299 84.3301 15.4299L84.3701 15.4499C84.3701 12.4499 83.0001 10.7299 80.7001 10.6899C79.4933 10.6361 78.3819 11.3436 77.9201 12.4599H77.8601V10.8199H74.8601V22.9599H77.8601V18.4399H77.9201C78.4044 19.5379 79.5226 20.2168 80.7201 20.1399ZM81.3301 15.4299C81.3301 13.9699 80.6601 13.0399 79.6101 13.0399C78.5601 13.0399 77.8901 13.9799 77.8801 15.4299C77.8701 16.8799 78.5601 17.8099 79.6101 17.8099C80.6601 17.8099 81.3301 16.8999 81.3301 15.4499V15.4299ZM93.5501 13.6999C93.4801 11.8099 91.9701 10.6299 89.4801 10.6299V10.6499C87.0001 10.6499 85.3901 11.8199 85.3701 13.6199C85.3701 15.0199 86.3101 15.9699 88.1001 16.3399L89.8301 16.7099C90.5501 16.8599 90.8301 16.9599 90.8301 17.4399C90.8301 17.9199 90.4301 18.2099 89.5501 18.2099C88.6701 18.2099 88.1301 17.8099 88.0401 17.1299H85.1501C85.2801 18.9999 86.9501 20.2199 89.5001 20.2199C92.0501 20.2199 93.7801 18.9999 93.7801 17.0999C93.7801 15.7099 93.0001 14.9699 91.1701 14.5799L89.2501 14.1899C88.5801 14.0499 88.2501 13.8999 88.2501 13.4299C88.2501 12.9599 88.6201 12.6399 89.4501 12.6399C90.2801 12.6399 90.8201 13.0499 90.8201 13.6999H93.5501ZM103.79 19.9999H100.9V18.2899H100.84C100.513 19.4728 99.4056 20.2679 98.1801 20.1999C97.2579 20.2523 96.3583 19.9025 95.7138 19.2407C95.0693 18.579 94.7433 17.6704 94.8201 16.7499V10.8199H97.8201V16.0599C97.8201 17.1499 98.3801 17.7299 99.3101 17.7299C99.7513 17.7308 100.171 17.5412 100.463 17.2098C100.754 16.8783 100.888 16.4373 100.83 15.9999V10.8199H103.83L103.79 19.9999ZM108.14 10.8199H105.24L105.19 20.0199H108.19V14.6099C108.144 14.2295 108.264 13.8476 108.518 13.5609C108.772 13.2742 109.137 13.11 109.52 13.1099C110.34 13.1099 110.79 13.6099 110.79 14.5299V20.0199H113.64V14.5899C113.591 14.2141 113.707 13.8354 113.958 13.5516C114.209 13.2678 114.571 13.1067 114.95 13.1099C115.79 13.1099 116.24 13.5699 116.24 14.5699V20.0199H119.24V13.7699C119.3 12.9466 119.008 12.1364 118.435 11.5413C117.863 10.9462 117.065 10.6222 116.24 10.6499C114.954 10.5946 113.793 11.4177 113.42 12.6499H113.36C113.161 11.4208 112.051 10.5505 110.81 10.6499C109.6 10.6276 108.527 11.4248 108.2 12.5899H108.14V10.8199Z" fill="#696871"/>
<path fill-rule="evenodd" clip-rule="evenodd" d="M24.4801 5.21997C25.2976 6.1919 25.9712 7.27633 26.4801 8.43997C27.2214 10.1366 27.6027 11.9685 27.6001 13.82C27.5946 21.2933 21.5434 27.3534 14.0701 27.37C12.3312 27.369 10.6091 27.0293 9.00009 26.37C7.85244 25.914 6.77509 25.2979 5.80009 24.54C1.65307 21.3795 -0.308887 16.1174 0.756806 11.0134C1.8225 5.90944 5.72618 1.87201 10.7914 0.635046C15.8565 -0.601916 21.1818 1.18173 24.4801 5.21997ZM18.5801 4.00997C17.1643 3.3511 15.6216 3.0098 14.0601 3.00997L14.0701 2.98997C10.3671 2.9872 6.92092 4.88174 4.93906 8.00971C2.9572 11.1377 2.71604 15.0629 4.30009 18.41C4.75178 17.9354 5.03013 17.3224 5.09009 16.67C5.4538 14.1574 7.4275 12.1837 9.94009 11.82C11.3577 11.6914 12.4898 10.5844 12.6501 9.16997C13.0138 6.65738 14.9875 4.68368 17.5001 4.31997C17.8719 4.26332 18.2349 4.15913 18.5801 4.00997ZM5.79009 20.82C5.83009 20.7833 5.8701 20.7477 5.9101 20.7122L5.91016 20.7121C5.99014 20.641 6.07011 20.5699 6.15009 20.49C7.03974 19.6274 7.6108 18.4888 7.77009 17.26C7.83467 16.5692 8.14309 15.924 8.64009 15.44C9.11834 14.9421 9.76206 14.6363 10.4501 14.58C12.9627 14.2163 14.9364 12.2426 15.3001 9.72997C15.3434 9.00748 15.6534 8.32681 16.1701 7.81997C16.6601 7.33182 17.31 7.03707 18.0001 6.98997C19.124 6.83533 20.1722 6.33568 21.0001 5.55997C21.9427 6.34204 22.7414 7.28286 23.3601 8.33997C23.3221 8.39132 23.2785 8.43827 23.2301 8.47997C22.7528 8.98216 22.1099 9.29473 21.4201 9.35997C18.9044 9.71741 16.9275 11.6942 16.5701 14.21C16.4248 15.6293 15.3 16.75 13.8801 16.89C11.3605 17.2508 9.3765 19.2227 9.00009 21.74C8.94627 22.2287 8.77843 22.698 8.51009 23.11C7.48409 22.5008 6.56518 21.7272 5.79009 20.82ZM11.0601 24.26C12.0355 24.5397 13.0454 24.6811 14.0601 24.68V24.63C17.4092 24.617 20.5634 23.0538 22.6022 20.3967C24.641 17.7397 25.3344 14.2883 24.4801 11.05C23.7209 11.5868 22.8421 11.93 21.9201 12.05C20.5041 12.1944 19.3846 13.314 19.2401 14.73C18.8753 17.2457 16.8966 19.2203 14.3801 19.58C12.9641 19.7244 11.8446 20.844 11.7001 22.26C11.6107 22.9601 11.3938 23.638 11.0601 24.26Z" fill="#696871"/>
</svg>
